<svg xmlns="http://www.w3.org/2000/svg" xmlns:xlink="http://www.w3.org/1999/xlink" width="500" zoomAndPan="magnify" viewBox="0 0 375 374.999991" height="500" preserveAspectRatio="xMidYMid meet" version="1.2"><defs><clipPath id="4a0f6a4867"><path d="M 81.613281 131 L 147 131 L 147 237 L 81.613281 237 Z M 81.613281 131 "/></clipPath><clipPath id="b86fc0a744"><path d="M 228 131 L 293.113281 131 L 293.113281 237 L 228 237 Z M 228 131 "/></clipPath><clipPath id="c48912fd6b"><path d="M 157 124 L 217 124 L 217 252.527344 L 157 252.527344 Z M 157 124 "/></clipPath></defs><g id="1fac102165"><path style=" stroke:none;fill-rule:nonzero;fill:#000000;fill-opacity:1;" d="M 332.855469 270.179688 C 334.546875 267.238281 336.144531 264.25 337.652344 261.210938 C 339.160156 258.175781 340.578125 255.097656 341.902344 251.976562 C 343.226562 248.855469 344.453125 245.695312 345.589844 242.5 C 346.722656 239.304688 347.761719 236.078125 348.703125 232.820312 C 349.644531 229.566406 350.488281 226.28125 351.230469 222.972656 C 351.976562 219.667969 352.621094 216.339844 353.164062 212.992188 C 353.710938 209.644531 354.15625 206.285156 354.5 202.914062 C 354.84375 199.539062 355.085938 196.160156 355.226562 192.769531 C 355.367188 189.382812 355.40625 185.996094 355.34375 182.605469 C 355.28125 179.214844 355.117188 175.828125 354.851562 172.449219 C 354.585938 169.070312 354.21875 165.699219 353.75 162.339844 C 353.285156 158.984375 352.714844 155.640625 352.046875 152.316406 C 351.378906 148.992188 350.613281 145.691406 349.75 142.414062 C 348.882812 139.136719 347.917969 135.886719 346.859375 132.664062 C 345.796875 129.445312 344.640625 126.257812 343.390625 123.109375 C 342.140625 119.957031 340.792969 116.847656 339.355469 113.777344 C 337.917969 110.703125 336.390625 107.679688 334.769531 104.703125 C 333.148438 101.722656 331.441406 98.792969 329.648438 95.917969 C 327.851562 93.042969 325.972656 90.222656 324.007812 87.457031 C 322.046875 84.695312 320 81.992188 317.875 79.351562 C 315.746094 76.710938 313.542969 74.132812 311.261719 71.625 C 308.984375 69.117188 306.628906 66.675781 304.203125 64.308594 C 301.777344 61.941406 299.28125 59.648438 296.714844 57.429688 C 294.152344 55.210938 291.523438 53.070312 288.832031 51.011719 C 286.136719 48.949219 283.386719 46.972656 280.574219 45.078125 C 277.761719 43.179688 274.898438 41.371094 271.976562 39.648438 C 269.058594 37.921875 266.089844 36.289062 263.070312 34.742188 C 260.054688 33.195312 256.992188 31.742188 253.886719 30.378906 C 250.78125 29.019531 247.640625 27.75 244.460938 26.578125 C 241.277344 25.402344 238.066406 24.324219 234.820312 23.34375 C 231.574219 22.363281 228.300781 21.480469 225.003906 20.695312 C 221.703125 19.910156 218.386719 19.222656 215.046875 18.636719 C 211.707031 18.050781 208.351562 17.566406 204.984375 17.183594 C 201.613281 16.796875 198.238281 16.511719 194.851562 16.332031 C 191.464844 16.148438 188.078125 16.066406 184.6875 16.089844 C 181.296875 16.109375 177.910156 16.230469 174.527344 16.457031 C 171.144531 16.679688 167.769531 17.003906 164.40625 17.429688 C 161.042969 17.855469 157.695312 18.382812 154.363281 19.011719 C 151.03125 19.636719 147.71875 20.363281 144.429688 21.1875 C 141.140625 22.015625 137.882812 22.9375 134.648438 23.957031 C 131.414062 24.980469 128.214844 26.097656 125.046875 27.308594 C 121.882812 28.523438 118.753906 29.828125 115.667969 31.230469 C 112.578125 32.628906 109.535156 34.121094 106.535156 35.703125 C 103.539062 37.285156 100.589844 38.957031 97.691406 40.71875 C 94.792969 42.476562 91.949219 44.320312 89.164062 46.25 C 86.375 48.183594 83.648438 50.195312 80.980469 52.289062 C 78.3125 54.378906 75.710938 56.550781 73.175781 58.800781 C 70.636719 61.050781 68.171875 63.375 65.773438 65.773438 C 63.375 68.171875 61.050781 70.636719 58.800781 73.175781 C 56.550781 75.710938 54.378906 78.3125 52.289062 80.980469 C 50.195312 83.648438 48.183594 86.375 46.25 89.164062 C 44.320312 91.949219 42.476562 94.792969 40.71875 97.691406 C 38.957031 100.589844 37.285156 103.539062 35.703125 106.535156 C 34.121094 109.535156 32.628906 112.578125 31.230469 115.667969 C 29.828125 118.753906 28.523438 121.882812 27.308594 125.046875 C 26.097656 128.214844 24.980469 131.414062 23.957031 134.648438 C 22.9375 137.882812 22.015625 141.140625 21.1875 144.429688 C 20.363281 147.71875 19.636719 151.03125 19.011719 154.363281 C 18.382812 157.695312 17.855469 161.042969 17.429688 164.40625 C 17.003906 167.769531 16.679688 171.144531 16.457031 174.527344 C 16.230469 177.910156 16.109375 181.296875 16.089844 184.6875 C 16.066406 188.078125 16.148438 191.464844 16.332031 194.851562 C 16.511719 198.238281 16.796875 201.613281 17.183594 204.984375 C 17.566406 208.351562 18.050781 211.707031 18.636719 215.046875 C 19.222656 218.386719 19.910156 221.703125 20.695312 225.003906 C 21.480469 228.300781 22.363281 231.574219 23.34375 234.820312 C 24.324219 238.066406 25.402344 241.277344 26.578125 244.460938 C 27.75 247.640625 29.019531 250.78125 30.378906 253.886719 C 31.742188 256.992188 33.195312 260.054688 34.742188 263.070312 C 36.289062 266.089844 37.921875 269.058594 39.648438 271.976562 C 41.371094 274.898438 43.179688 277.761719 45.078125 280.574219 C 46.972656 283.386719 48.949219 286.136719 51.011719 288.832031 C 53.070312 291.523438 55.210938 294.152344 57.429688 296.714844 C 59.648438 299.28125 61.941406 301.777344 64.308594 304.203125 C 66.675781 306.628906 69.117188 308.984375 71.625 311.261719 C 74.132812 313.542969 76.707031 315.746094 79.351562 317.875 C 81.992188 320 84.695312 322.046875 87.457031 324.007812 C 90.222656 325.972656 93.042969 327.851562 95.917969 329.648438 C 98.792969 331.441406 101.722656 333.148438 104.703125 334.769531 C 107.679688 336.390625 110.703125 337.917969 113.777344 339.355469 C 116.847656 340.792969 119.957031 342.140625 123.109375 343.390625 C 126.257812 344.640625 129.445312 345.796875 132.664062 346.859375 C 135.886719 347.917969 139.136719 348.882812 142.414062 349.75 C 145.691406 350.613281 148.992188 351.378906 152.316406 352.046875 C 155.640625 352.714844 158.984375 353.285156 162.339844 353.75 C 165.699219 354.21875 169.070312 354.585938 172.449219 354.851562 C 175.828125 355.117188 179.214844 355.28125 182.605469 355.34375 C 185.996094 355.40625 189.382812 355.367188 192.769531 355.226562 C 196.160156 355.085938 199.539062 354.84375 202.914062 354.5 C 206.285156 354.15625 209.644531 353.710938 212.992188 353.164062 C 216.339844 352.621094 219.667969 351.976562 222.972656 351.230469 C 226.28125 350.488281 229.566406 349.644531 232.820312 348.703125 C 236.078125 347.761719 239.304688 346.722656 242.5 345.589844 C 245.695312 344.453125 248.855469 343.226562 251.976562 341.902344 C 255.097656 340.578125 258.175781 339.160156 261.210938 337.652344 C 264.25 336.144531 267.238281 334.546875 270.179688 332.855469 L 343.929688 355 L 346.429688 355 C 347.613281 355.015625 348.75 354.789062 349.835938 354.320312 C 350.925781 353.855469 351.871094 353.1875 352.679688 352.320312 C 353.246094 351.761719 353.726562 351.136719 354.125 350.449219 C 354.523438 349.761719 354.828125 349.03125 355.03125 348.261719 C 355.234375 347.492188 355.335938 346.710938 355.328125 345.914062 C 355.324219 345.117188 355.214844 344.339844 355 343.570312 Z M 332.855469 270.179688 "/><g clip-rule="nonzero" clip-path="url(#4a0f6a4867)"><path style=" stroke:none;fill-rule:nonzero;fill:#ffffff;fill-opacity:1;" d="M 143.699219 220.625 L 137.324219 214.675781 L 104.589844 184.03125 L 137.324219 153.402344 L 143.699219 147.453125 C 147.449219 143.941406 147.65625 138.027344 144.144531 134.273438 C 140.632812 130.523438 134.714844 130.320312 130.964844 133.832031 L 107.769531 155.527344 L 84.574219 177.226562 C 82.6875 178.984375 81.613281 181.460938 81.613281 184.03125 C 81.613281 186.617188 82.6875 189.074219 84.574219 190.832031 L 130.964844 234.230469 C 132.757812 235.910156 135.050781 236.742188 137.324219 236.742188 C 139.816406 236.742188 142.292969 235.746094 144.125 233.785156 C 147.65625 230.035156 147.449219 224.136719 143.699219 220.625 Z M 143.699219 220.625 "/></g><g clip-rule="nonzero" clip-path="url(#b86fc0a744)"><path style=" stroke:none;fill-rule:nonzero;fill:#ffffff;fill-opacity:1;" d="M 290.15625 177.226562 L 266.960938 155.527344 L 243.765625 133.832031 C 240.011719 130.300781 234.097656 130.503906 230.585938 134.253906 C 227.074219 138.007812 227.261719 143.921875 231.03125 147.433594 L 237.40625 153.386719 L 254.226562 169.132812 L 270.140625 184.03125 L 237.390625 214.65625 L 231.011719 220.609375 C 227.261719 224.121094 227.058594 230.035156 230.570312 233.785156 C 232.398438 235.746094 234.894531 236.742188 237.371094 236.742188 C 239.644531 236.742188 241.9375 235.910156 243.746094 234.230469 L 290.140625 190.832031 C 292.023438 189.074219 293.097656 186.597656 293.097656 184.03125 C 293.113281 181.441406 292.042969 178.984375 290.15625 177.226562 Z M 290.15625 177.226562 "/></g><g clip-rule="nonzero" clip-path="url(#c48912fd6b)"><path style=" stroke:none;fill-rule:nonzero;fill:#ffffff;fill-opacity:1;" d="M 210.535156 124.605469 C 205.710938 122.8125 200.332031 125.273438 198.539062 130.097656 L 157.875 239.421875 C 156.082031 244.246094 158.539062 249.625 163.363281 251.417969 C 164.4375 251.824219 165.527344 252.011719 166.617188 252.011719 C 170.40625 252.011719 173.957031 249.679688 175.359375 245.929688 L 216.023438 136.585938 C 217.816406 131.761719 215.375 126.398438 210.535156 124.605469 Z M 210.535156 124.605469 "/></g></g></svg>