<?xml version="1.0" standalone="no"?>
<!DOCTYPE svg PUBLIC "-//W3C//DTD SVG 20010904//EN"
 "http://www.w3.org/TR/2001/REC-SVG-20010904/DTD/svg10.dtd">
<svg version="1.0" xmlns="http://www.w3.org/2000/svg"
 width="1879.000000pt" height="1829.000000pt" viewBox="0 0 1879.000000 1829.000000"
 preserveAspectRatio="xMidYMid meet">

<g transform="translate(0.000000,1829.000000) scale(0.100000,-0.100000)"
fill="#000000" stroke="none">
<path d="M9060 17984 c-557 -37 -868 -75 -1275 -154 -1552 -303 -2925 -980
-4135 -2039 -200 -174 -707 -681 -881 -881 -807 -923 -1374 -1908 -1750 -3040
-238 -717 -366 -1367 -431 -2190 -16 -203 -16 -957 0 -1160 65 -822 195 -1479
432 -2192 542 -1629 1527 -3033 2884 -4112 1239 -986 2753 -1621 4336 -1820
429 -54 549 -61 1105 -61 556 0 676 7 1105 61 1266 159 2472 589 3562 1271
382 239 754 517 1127 842 215 188 726 699 915 915 723 828 1255 1720 1635
2738 750 2011 728 4272 -62 6273 -76 193 -183 444 -196 457 -4 4 -38 -15 -76
-43 -90 -65 -226 -131 -338 -163 -100 -29 -263 -47 -352 -40 l-60 6 -43 -71
-43 -70 32 -73 c17 -40 44 -100 59 -133 16 -33 45 -104 66 -157 l37 -97 226
-92 c124 -50 240 -97 258 -104 45 -19 49 -47 17 -125 -30 -75 -49 -100 -76
-100 -11 0 -81 25 -156 56 -75 31 -142 58 -148 61 -6 2 15 -80 47 -183 33
-103 87 -300 121 -438 34 -138 63 -253 65 -255 1 -2 43 11 92 29 123 44 132
41 170 -60 44 -112 41 -117 -104 -170 -112 -41 -116 -43 -111 -69 28 -130 86
-583 86 -663 l0 -37 -147 50 c-157 52 -184 57 -202 35 -17 -20 -91 -246 -91
-277 0 -15 6 -31 13 -36 6 -6 112 -44 235 -84 l222 -74 0 -246 c0 -633 -75
-1250 -225 -1859 -25 -100 -45 -184 -45 -189 0 -4 43 -32 95 -62 52 -30 98
-62 101 -72 8 -26 -48 -121 -75 -125 -11 -2 -55 15 -97 38 -41 23 -76 40 -78
39 -1 -2 -28 -83 -59 -179 -32 -96 -80 -233 -107 -305 l-49 -130 155 -155 c85
-86 154 -162 154 -169 0 -7 -28 -42 -62 -77 -44 -46 -68 -64 -87 -64 -19 0
-54 28 -141 115 l-115 115 -83 -177 c-210 -455 -486 -917 -798 -1338 -96 -129
-110 -143 -116 -123 -4 13 -55 176 -113 363 -65 207 -114 348 -125 359 -19 20
-20 19 -112 -8 -51 -15 -99 -32 -106 -38 -6 -6 -12 -24 -12 -40 0 -16 61 -224
135 -462 74 -239 135 -437 135 -441 0 -30 -466 -512 -705 -730 -1233 -1122
-2772 -1810 -4425 -1979 -402 -41 -1089 -47 -1460 -12 -1709 162 -3228 823
-4496 1957 -156 140 -473 460 -614 619 -1036 1170 -1691 2621 -1885 4170 -65
526 -73 1207 -19 1730 197 1917 1076 3655 2509 4960 562 511 1222 955 1881
1265 l122 57 -76 72 c-64 62 -74 76 -69 97 10 36 113 139 139 139 15 0 60 -35
130 -100 58 -55 111 -100 116 -100 6 0 75 25 154 56 525 205 1129 364 1668
439 102 14 201 29 220 33 l35 7 51 231 c66 300 61 282 84 294 21 11 158 -14
187 -35 23 -17 20 -44 -31 -270 -25 -110 -44 -200 -43 -201 1 -1 50 2 108 6
555 41 1205 8 1793 -91 65 -11 120 -18 122 -16 2 1 -3 27 -11 57 -42 160 -40
370 5 545 24 89 91 239 140 310 18 26 30 48 28 50 -6 6 -385 64 -553 84 -346
42 -530 52 -965 56 -234 1 -450 1 -480 -1z"/>
<path d="M7946 15898 c-8 -13 -24 -60 -36 -105 -26 -98 -20 -117 43 -134 23
-6 319 -87 657 -181 338 -93 628 -169 644 -170 38 -1 49 16 76 114 25 92 21
121 -17 137 -51 20 -1305 361 -1329 361 -13 0 -30 -10 -38 -22z"/>
<path d="M5308 15523 c-8 -10 -34 -106 -57 -213 -61 -281 -91 -420 -161 -729
-49 -215 -60 -279 -52 -296 8 -18 26 -27 81 -39 95 -22 118 -20 135 7 7 12 33
110 55 217 50 231 79 363 161 725 46 205 59 275 51 291 -7 17 -27 26 -80 38
-89 20 -114 20 -133 -1z"/>
<path d="M9034 14248 c-10 -14 -34 -82 -53 -152 l-35 -127 21 -20 c14 -14 150
-56 469 -144 247 -68 458 -125 469 -127 16 -2 21 5 30 43 18 83 42 92 160 64
69 -16 89 -37 80 -80 -4 -16 -9 -46 -12 -65 l-5 -35 304 -82 c167 -46 315 -83
329 -83 15 0 31 6 37 13 5 6 26 72 46 144 44 160 43 164 -52 192 -115 34
-1712 471 -1741 477 -22 5 -32 0 -47 -18z"/>
<path d="M4191 14108 c-1028 -1139 -1655 -2529 -1821 -4037 -34 -309 -43 -525
-37 -911 5 -391 18 -567 67 -910 170 -1190 640 -2321 1369 -3287 411 -545 914
-1045 1461 -1453 1110 -826 2437 -1311 3830 -1400 212 -13 688 -13 900 0 1624
103 3135 738 4354 1831 82 74 151 139 153 144 2 6 -715 728 -1592 1605 l-1594
1594 -73 -70 c-302 -292 -721 -515 -1158 -618 -206 -49 -318 -61 -575 -61
-250 0 -329 8 -530 50 -967 207 -1725 947 -1955 1910 -45 189 -61 315 -67 531
-8 273 12 459 77 714 99 394 307 784 575 1077 41 45 75 85 75 90 0 10 -3322
3333 -3332 3333 -4 0 -61 -60 -127 -132z m1076 -2735 c174 -252 331 -481 350
-509 l34 -52 -101 -146 -102 -146 -46 32 c-26 18 -237 164 -469 325 -233 161
-427 293 -433 293 -5 0 -20 -16 -32 -35 -13 -19 -26 -35 -30 -35 -13 0 -188
124 -188 133 0 5 9 21 19 36 11 15 21 32 23 38 2 7 -53 51 -122 98 -69 48
-127 89 -129 91 -6 6 142 223 152 224 6 0 208 -137 253 -172 8 -5 60 62 159
206 l149 215 98 -69 99 -68 316 -459z m-1212 -424 c79 -22 225 -82 225 -93 0
-6 -23 -68 -51 -138 l-51 -127 -49 19 c-27 11 -72 29 -99 40 -108 43 -180 13
-205 -85 -15 -60 -5 -94 35 -129 16 -13 137 -67 269 -120 258 -103 312 -115
357 -78 51 40 69 133 39 191 -8 16 -32 44 -54 62 l-39 34 40 103 c23 56 46
102 52 102 15 0 818 -339 829 -349 5 -5 -58 -173 -138 -374 l-146 -365 -87 35
c-48 19 -101 41 -119 48 l-32 14 100 247 c54 137 99 253 99 260 0 9 -310 146
-317 140 -1 -1 3 -22 8 -46 25 -105 -16 -251 -96 -338 -63 -71 -167 -107 -265
-91 -55 9 -558 205 -624 244 -59 35 -121 102 -148 160 -33 72 -31 201 6 304
57 163 149 282 248 320 59 22 151 27 213 10z m130 -1955 c473 -9 860 -17 860
-17 0 -1 -1 -76 -3 -166 l-3 -164 -357 6 c-196 4 -542 10 -768 14 l-411 6 -6
-93 c-4 -51 -7 -162 -7 -247 l0 -154 -137 3 -138 3 3 275 c1 151 5 337 9 413
l6 137 46 0 c25 0 433 -7 906 -16z m917 -1136 c82 -356 91 -443 59 -530 -27
-71 -87 -128 -166 -157 -65 -25 -280 -75 -362 -86 -101 -13 -178 25 -232 115
l-21 35 0 -41 c0 -117 -53 -189 -168 -224 -106 -33 -466 -110 -514 -110 -138
0 -225 70 -277 223 -20 56 -164 678 -159 681 7 5 1763 402 1766 400 2 -1 35
-139 74 -306z m-1101 -1421 c31 -73 54 -135 50 -138 -8 -9 -293 -130 -296
-127 -12 13 -115 271 -111 276 11 10 291 129 295 125 3 -2 31 -63 62 -136z
m7601 -853 c66 -22 120 -73 216 -204 47 -63 89 -120 94 -127 6 -8 -30 -39
-117 -103 -69 -50 -131 -93 -138 -96 -7 -2 -44 39 -86 97 -73 100 -117 139
-157 139 -34 0 -123 -50 -150 -85 -35 -47 -40 -93 -16 -147 17 -40 546 -781
639 -896 65 -81 130 -93 209 -39 26 17 56 44 67 59 24 33 26 92 3 139 -18 38
-202 293 -214 297 -4 1 -41 -23 -82 -53 -41 -30 -78 -55 -82 -55 -8 0 -146
182 -154 204 -6 17 424 332 436 320 45 -50 569 -789 563 -795 -4 -4 -55 -42
-113 -84 l-105 -76 -32 38 c-35 41 -33 42 -53 -42 -6 -27 -22 -69 -36 -92 -33
-56 -123 -135 -198 -171 -156 -77 -299 -57 -408 55 -51 53 -691 935 -728 1004
-108 202 -57 386 154 555 180 144 360 202 488 158z m-4981 -274 c174 -53 328
-196 364 -336 26 -103 -3 -194 -117 -371 -166 -259 -175 -264 -593 -358 -115
-26 -234 -56 -264 -67 -49 -19 -141 -89 -141 -108 0 -4 106 -76 235 -160 129
-84 235 -154 235 -156 0 -4 -127 -203 -135 -212 -1 -1 -166 104 -366 234 -200
129 -371 239 -379 244 -12 7 -12 12 -2 32 29 52 161 206 224 259 125 104 210
139 497 200 321 68 324 70 445 259 82 129 96 171 76 220 -17 41 -85 80 -137
80 -56 0 -83 -24 -164 -151 l-70 -108 -102 66 c-56 36 -108 71 -116 78 -25 24
143 271 219 321 86 57 181 68 291 34z m4204 -192 c-10 -63 -95 -794 -95 -821
0 -22 61 -92 317 -365 174 -185 345 -367 380 -403 l64 -66 -163 -61 c-90 -34
-168 -62 -174 -62 -6 0 -152 153 -324 340 -172 187 -314 339 -316 337 -2 -2
63 -181 146 -397 82 -216 150 -398 150 -405 0 -14 -301 -129 -310 -118 -9 10
-640 1668 -640 1681 0 11 297 125 308 118 4 -3 62 -147 127 -320 66 -174 122
-316 125 -316 3 0 25 174 48 387 23 212 43 387 44 388 10 7 296 114 306 114 9
1 11 -9 7 -31z m-3320 -264 c156 -38 294 -141 335 -251 18 -48 21 -73 18 -143
-5 -80 -15 -112 -183 -575 -98 -269 -189 -512 -202 -540 -37 -71 -120 -149
-190 -175 -83 -32 -184 -31 -288 5 -285 96 -392 264 -316 498 56 174 355 987
377 1025 53 90 144 154 246 171 60 10 116 6 203 -15z m1654 -273 c11 -7 12
-79 7 -437 -3 -236 -9 -493 -12 -571 l-6 -143 51 0 51 0 0 -120 0 -120 -49 0
-49 0 -7 -162 -7 -163 -134 3 -134 3 0 160 c0 87 -1 160 -2 161 -2 0 -118 4
-258 7 l-255 6 2 120 3 120 227 572 228 573 165 0 c91 0 171 -4 179 -9z
m-1219 -1291 c63 -12 120 -22 126 -25 8 -2 2 -53 -18 -162 -17 -87 -31 -159
-33 -161 -3 -3 -287 49 -293 53 -3 2 38 234 53 303 4 17 11 21 28 17 12 -2 74
-14 137 -25z"/>
<path d="M4732 11516 c-40 -58 -72 -107 -72 -110 0 -7 661 -489 665 -484 3 3
-485 662 -508 686 -11 10 -27 -8 -85 -92z"/>
<path d="M4616 7732 c-119 -28 -201 -52 -204 -60 -2 -7 6 -54 19 -105 18 -75
29 -98 56 -126 32 -32 36 -33 91 -28 31 3 100 15 152 28 78 18 101 28 127 54
28 28 33 40 33 82 -1 26 -9 82 -18 123 -14 61 -21 75 -37 77 -11 1 -110 -20
-219 -45z"/>
<path d="M3855 7558 c-143 -33 -261 -61 -263 -63 -2 -2 9 -53 23 -115 35 -146
58 -175 137 -174 67 1 331 60 380 85 21 11 42 28 48 38 14 28 12 113 -4 180
-8 31 -17 68 -20 84 -4 17 -13 27 -24 26 -9 0 -134 -28 -277 -61z"/>
<path d="M7370 4626 c-14 -8 -35 -31 -47 -53 -12 -21 -100 -257 -197 -524
-183 -505 -194 -548 -160 -597 19 -27 58 -48 106 -57 50 -10 99 16 127 66 13
22 101 257 198 522 186 512 197 554 157 598 -44 50 -134 72 -184 45z"/>
<path d="M8760 3863 c-80 -223 -146 -409 -148 -413 -4 -9 251 -21 259 -12 7 7
44 821 37 827 -1 2 -68 -179 -148 -402z"/>
<path d="M7483 14162 c-13 -12 -58 -197 -152 -625 -155 -700 -153 -633 -21
-661 84 -19 114 -13 124 21 2 10 64 285 136 611 120 543 130 595 117 616 -11
17 -35 26 -94 39 -96 21 -89 21 -110 -1z"/>
<path d="M13439 12346 c-679 -290 -667 -285 -675 -308 -6 -21 38 -140 64 -170
8 -10 25 -18 37 -18 27 0 1123 466 1148 488 23 21 21 49 -9 118 -30 68 -50 94
-73 94 -9 -1 -230 -92 -492 -204z"/>
<path d="M15270 12128 c0 -17 241 -772 250 -783 17 -20 45 -19 126 6 86 26
114 43 114 72 0 12 -43 162 -97 333 l-96 312 -59 6 c-55 7 -181 36 -220 51
-10 4 -18 6 -18 3z"/>
<path d="M15020 9586 c-300 -129 -555 -241 -567 -250 -29 -22 -29 -43 3 -119
29 -68 50 -97 71 -97 26 0 1140 481 1157 499 22 24 21 31 -14 114 -34 78 -42
87 -80 86 -14 0 -270 -105 -570 -233z"/>
<path d="M12636 9788 c-23 -36 -56 -126 -56 -153 0 -15 9 -30 23 -38 18 -12
249 -106 1075 -438 92 -37 105 -31 145 65 36 88 35 101 -10 129 -58 36 -1105
457 -1135 457 -18 0 -33 -8 -42 -22z"/>
<path d="M14436 8384 c-9 -8 -16 -16 -16 -18 0 -1 -58 -265 -130 -586 -71
-321 -130 -597 -130 -612 0 -34 26 -52 98 -67 79 -16 110 -14 122 9 14 26 270
1175 270 1211 0 35 -14 46 -91 64 -81 19 -104 19 -123 -1z"/>
<path d="M11954 7316 c-17 -12 -25 -34 -35 -101 -12 -81 -11 -87 7 -104 15
-15 142 -38 633 -116 713 -112 643 -115 663 23 10 77 10 84 -8 101 -15 15
-139 37 -604 111 -322 50 -596 94 -610 96 -14 3 -35 -2 -46 -10z"/>
</g>
</svg>
